<svg xmlns="http://www.w3.org/2000/svg" viewBox="0 0 134.06 21.78"><g id="Layer_2" data-name="Layer 2"><g id="Layer_1-2" data-name="Layer 1"><path d="M70,2.47a8.35,8.35,0,0,0-5,1.65c-.28.21-.54.43-.8.66a8.51,8.51,0,0,0-.71.76,7.66,7.66,0,0,0-1.89,5.28c-.24,4.55,3.79,8.44,8.26,8.49a8.26,8.26,0,0,0,5.42-2,10,10,0,0,0,.75-.71,7.19,7.19,0,0,0,.66-.8A8.36,8.36,0,0,0,78.39,11,8.56,8.56,0,0,0,70,2.47m4.59,12.69a5.58,5.58,0,0,1-.76.7A6.32,6.32,0,0,1,65,7a6.39,6.39,0,0,1,.71-.76,5.65,5.65,0,0,1,.82-.64,6.32,6.32,0,0,1,9.76,5.49,6,6,0,0,1-1,3.25,5.65,5.65,0,0,1-.64.82"/><path d="M110.52,19.29a8.34,8.34,0,0,1-8.36-8.41,8.39,8.39,0,1,1,8.36,8.41m0-2.08a6.32,6.32,0,0,0,.12-12.63,6.27,6.27,0,0,0-6.38,6.17,6.34,6.34,0,0,0,6.26,6.46"/><path d="M47.54,15.09c0-1.06,0-2.11,0-3.16,0-.72.1-.87.86-.86l3.89,0c.67,0,1.34,0,2,0A3.14,3.14,0,1,0,54,4.81c-1.55,0-3.11,0-4.66,0-.81,0-.88-.08-.88-.89,0-.17,0-.35,0-.52a.57.57,0,0,1,.62-.66c1.89,0,3.78-.14,5.64,0A5,5,0,0,1,59.45,8a5,5,0,0,1-3,4.69c-.64.32-.65.34-.29.93,1,1.61,1.94,3.22,2.9,4.83.26.43.14.63-.38.65H58.5c-2,0-1.52.19-2.5-1.46-.83-1.39-1.67-2.78-2.49-4.17a.59.59,0,0,0-.54-.33l-2.69,0c-.48,0-.65.22-.64.71,0,1.5,0,3,0,4.5,0,.69-.09.77-.78.77-1.37,0-1.32.15-1.31-1.31V15.09Z"/><path d="M37.28,11.08c.87,0,1.73-.05,2.59,0A3.32,3.32,0,0,0,43.28,8,3.21,3.21,0,0,0,40,4.8c-1.54,0-3.08,0-4.61,0-.7,0-.76-.07-.77-.78,0-1.3,0-1.3,1.33-1.3s2.9,0,4.35,0a5.31,5.31,0,0,1,2.94.83,4.59,4.59,0,0,1,2,3.12,5.41,5.41,0,0,1-1.49,5.1,4.72,4.72,0,0,1-3.63,1.36c-1.33,0-2.66,0-4,0-.44,0-.49.26-.49.61v4.4c0,.93-.05,1-1,1-1.22,0-1.22,0-1.22-1.2v-6c0-.77.08-.85.87-.85h3Z"/><path d="M126.38,12c0-2.13,0-4.25,0-6.37,0-.48-.11-.67-.64-.65-1.36,0-2.73,0-4.09,0-.42,0-.56-.17-.56-.55s0-.79,0-1.19.14-.49.51-.49h11.75c.59,0,.68.1.69.7v.78c0,.7-.07.77-.77.77h-3.83c-.67,0-.7,0-.7.7V18.2c0,.86,0,.88-.86.87-1.73,0-1.51.24-1.51-1.51s0-3.73,0-5.59"/><path d="M99.91,17.77l-6-14.5a.93.93,0,0,0-1.72,0L90.33,7.64a.06.06,0,0,1-.12,0L88.4,3.29a.94.94,0,0,0-1.73,0l-6,14.5a.94.94,0,0,0,.86,1.29h5.58a.94.94,0,0,0,.86-.57L90.22,13a.07.07,0,0,1,.12,0l2.28,5.47a.93.93,0,0,0,.86.57h5.57a1,1,0,0,0,.78-.42.92.92,0,0,0,.08-.87M89.26,10.46,86.53,17a.32.32,0,0,1-.29.2H83.37a.32.32,0,0,1-.3-.44l4.17-10a.32.32,0,0,1,.59,0l1.43,3.44a.25.25,0,0,1,0,.24m7.92,6.74H94.31A.3.3,0,0,1,94,17l-2.74-6.56a.37.37,0,0,1,0-.24l1.44-3.44a.31.31,0,0,1,.58,0l4.17,10a.32.32,0,0,1-.29.44"/><path d="M25.73,20,17.69.76a1.23,1.23,0,0,0-2.28,0L13,6.58a.09.09,0,0,1-.16,0L10.42.79A1.26,1.26,0,0,0,9.27,0,1.23,1.23,0,0,0,8.13.79L.1,20.06a1.24,1.24,0,0,0,1.14,1.72H8.65A1.26,1.26,0,0,0,9.8,21l3-7.3a.09.09,0,0,1,.16,0L16,21a1.23,1.23,0,0,0,1.14.76h7.41a1.22,1.22,0,0,0,1-.55A1.2,1.2,0,0,0,25.73,20M11.57,10.32,7.94,19a.42.42,0,0,1-.39.26H3.73a.42.42,0,0,1-.39-.58L8.88,5.42a.43.43,0,0,1,.78,0L11.57,10a.44.44,0,0,1,0,.32m10.52,9H18.28a.41.41,0,0,1-.39-.26l-3.64-8.72a.41.41,0,0,1,0-.16.45.45,0,0,1,0-.16l1.91-4.58a.43.43,0,0,1,.78,0l5.54,13.3a.42.42,0,0,1-.39.58"/></g></g></svg>